<?xml version="1.0" encoding="utf-8"?>
<!-- Generator: Adobe Illustrator 21.1.0, SVG Export Plug-In . SVG Version: 6.00 Build 0)  -->
<svg version="1.1" id="Layer_1" xmlns="http://www.w3.org/2000/svg" xmlns:xlink="http://www.w3.org/1999/xlink" x="0px" y="0px"
	 viewBox="0 0 200 200" style="enable-background:new 0 0 200 200;" xml:space="preserve">
<style type="text/css">
	.st0{fill:#00ADEE;}
	.st1{fill:#808184;}
</style>
<path class="st0" d="M133.9,122.8l-10.4,10.4c0,2.9-0.2,5.7-0.4,8.2c-2,18.3-10.6,25.8-25.7,25.8c-10.3,0-18.7-4.2-25.7-14.1
	c-1.6-2.3-4.8-3-7.1-1.3l-6.3,4.5c-2.3,1.7-3,4.9-1.4,7.3c9.5,14.4,23.4,21.8,42.3,21.8c29.1,0,42.4-18.7,44.8-43.1
	c0.3-2.7,0.4-5.4,0.4-8.1v-1.2L133.9,122.8z"/>
<g>
	<path class="st1" d="M140.9,14.5h-14.1c-1.8,0-3.3,1.5-3.3,3.3V25v5.4v3.3h3.3h14.1h3.3v-3.3V25v-7.1
		C144.2,16,142.7,14.5,140.9,14.5z"/>
	<polygon class="st1" points="123.5,112.4 133.9,122.8 144.2,112.4 144.2,38.7 123.5,38.7 	"/>
</g>
</svg>
