<?xml version="1.0" encoding="utf-8"?>
<!-- Generator: Adobe Illustrator 21.1.0, SVG Export Plug-In . SVG Version: 6.00 Build 0)  -->
<svg version="1.1" id="Layer_1" xmlns="http://www.w3.org/2000/svg" xmlns:xlink="http://www.w3.org/1999/xlink" x="0px" y="0px"
	 viewBox="0 0 755.4 199.2" style="enable-background:new 0 0 755.4 199.2;" xml:space="preserve">
<style type="text/css">
	.st0{fill:none;}
	.st1{fill:#00ADEE;}
	.st2{font-family:'AvenirNext-DemiBold';}
	.st3{font-size:75.3876px;}
	.st4{letter-spacing:3;}
	.st5{fill:#808184;}
	.st6{font-family:'AvenirNext-Regular';}
	.st7{font-size:36.5516px;}
	.st8{font-size:20.5603px;}
	.st9{fill:none;stroke:#58595B;stroke-width:2.2845;stroke-miterlimit:10;}
</style>
<rect x="185.3" y="42.4" class="st0" width="575.7" height="64.3"/>
<text transform="matrix(1 0 0 1 185.2891 99.3615)"><tspan x="0" y="0" class="st1 st2 st3">Jordan Stewa</tspan><tspan x="477.2" y="0" class="st1 st2 st3 st4">r</tspan><tspan x="508.6" y="0" class="st1 st2 st3">t</tspan></text>
<rect x="183.9" y="122.3" class="st0" width="531.4" height="64.3"/>
<text transform="matrix(1 0 0 1 183.8496 149.9587)"><tspan x="0" y="0" class="st5 st6 st7">design </tspan><tspan x="123" y="0" class="st5 st6 st8">•</tspan><tspan x="133.3" y="0" class="st5 st6 st7"> illustration </tspan><tspan x="325.2" y="0" class="st5 st6 st8">•</tspan><tspan x="335.4" y="0" class="st5 st6 st7"> ux </tspan></text>
<line class="st9" x1="140.7" y1="32.8" x2="140.7" y2="159.7"/>
<path class="st1" d="M83.5,111.3l-6.6,6.6c0,1.9-0.1,3.6-0.3,5.2c-1.3,11.6-6.7,16.4-16.4,16.4c-6.6,0-11.9-2.7-16.3-9
	c-1-1.5-3.1-1.9-4.5-0.8l-4,2.9c-1.5,1.1-1.9,3.1-0.9,4.6c6,9.1,14.9,13.9,26.9,13.9c18.5,0,27-11.9,28.5-27.4
	c0.2-1.7,0.3-3.4,0.3-5.2v-0.7L83.5,111.3z"/>
<g>
	<path class="st5" d="M88,42.4H79c-1.2,0-2.1,1-2.1,2.1V49v3.4v2.1H79H88h2.1v-2.1V49v-4.5C90.1,43.3,89.2,42.4,88,42.4z"/>
	<polygon class="st5" points="76.9,104.7 83.5,111.3 90.1,104.7 90.1,57.8 76.9,57.8 	"/>
</g>
</svg>
