<?xml version="1.0" encoding="utf-8"?>
<!-- Generator: Adobe Illustrator 21.1.0, SVG Export Plug-In . SVG Version: 6.00 Build 0)  -->
<svg version="1.1" id="Layer_1" xmlns="http://www.w3.org/2000/svg" xmlns:xlink="http://www.w3.org/1999/xlink" x="0px" y="0px"
	 viewBox="0 0 570 200" style="enable-background:new 0 0 570 200;" xml:space="preserve">
<style type="text/css">
	.st0{fill:#00ADEE;}
	.st1{fill:#808184;}
</style>
<path class="st0" d="M95.7,122.8l-10.4,10.4c0,2.9-0.2,5.7-0.4,8.2c-2,18.3-10.6,25.8-25.7,25.8c-10.3,0-18.7-4.2-25.7-14.1
	c-1.6-2.3-4.8-3-7.1-1.3l-6.3,4.5c-2.3,1.7-3,4.9-1.4,7.3c9.5,14.4,23.4,21.8,42.3,21.8c29.1,0,42.4-18.7,44.8-43.1
	c0.3-2.7,0.4-5.4,0.4-8.1v-1.2L95.7,122.8z"/>
<g>
	<path class="st1" d="M102.7,14.5H88.7c-1.8,0-3.3,1.5-3.3,3.3V25v5.4v3.3h3.3h14.1h3.3v-3.3V25v-7.1
		C106.1,16,104.6,14.5,102.7,14.5z"/>
	<polygon class="st1" points="85.4,112.4 95.7,122.8 106.1,112.4 106.1,38.7 85.4,38.7 	"/>
</g>
<g>
	<path class="st0" d="M229.4,69.8c0,2.7-0.3,5.6-0.9,8.6c-0.6,3-1.7,5.8-3.3,8.4c-1.6,2.6-3.9,4.7-6.8,6.4
		c-2.9,1.7-6.7,2.5-11.3,2.5c-6,0-10.8-1.5-14.4-4.5c-3.6-3-6.1-7-7.4-11.9l12.2-3.5c0.6,2.5,1.8,4.4,3.5,5.8c1.7,1.4,3.7,2.2,6,2.2
		c1.9,0,3.4-0.3,4.7-1c1.2-0.7,2.2-1.7,2.8-3c0.7-1.3,1.1-2.8,1.4-4.6c0.3-1.8,0.4-3.7,0.4-5.8V19.5h13.2V69.8z"/>
	<path class="st0" d="M241.5,68.5c0-4,0.7-7.6,2.2-10.9c1.4-3.3,3.4-6,5.8-8.3c2.5-2.3,5.4-4.1,8.7-5.4c3.4-1.3,6.9-1.9,10.7-1.9
		c3.8,0,7.3,0.6,10.7,1.9c3.4,1.3,6.3,3,8.7,5.4c2.4,2.3,4.4,5.1,5.8,8.3c1.4,3.3,2.2,6.9,2.2,10.9c0,4-0.7,7.6-2.2,10.9
		c-1.4,3.3-3.4,6.1-5.8,8.5c-2.5,2.3-5.4,4.2-8.7,5.5c-3.4,1.3-6.9,2-10.7,2c-3.8,0-7.4-0.7-10.7-2c-3.4-1.3-6.3-3.2-8.7-5.5
		c-2.5-2.3-4.4-5.2-5.8-8.5C242.3,76.1,241.5,72.5,241.5,68.5z M254.4,68.5c0,2,0.3,3.9,0.9,5.9c0.6,2,1.5,3.7,2.7,5.2
		c1.2,1.5,2.7,2.8,4.5,3.8c1.8,1,4,1.5,6.5,1.5c2.5,0,4.7-0.5,6.5-1.5c1.8-1,3.3-2.2,4.5-3.8c1.2-1.5,2.1-3.3,2.7-5.2
		c0.6-2,0.9-3.9,0.9-5.9c0-2-0.3-3.9-0.9-5.8c-0.6-1.9-1.5-3.7-2.7-5.2c-1.2-1.5-2.7-2.8-4.5-3.7c-1.8-0.9-4-1.4-6.5-1.4
		c-2.5,0-4.7,0.5-6.5,1.4c-1.8,0.9-3.3,2.2-4.5,3.7c-1.2,1.5-2.1,3.3-2.7,5.2C254.6,64.6,254.4,66.5,254.4,68.5z"/>
	<path class="st0" d="M308.5,43.5h12.1v8.4h0.2c1.4-2.9,3.4-5.3,5.9-7.1c2.5-1.8,5.5-2.7,8.8-2.7c0.5,0,1,0,1.6,0.1
		c0.6,0,1,0.1,1.5,0.3v11.6c-0.8-0.2-1.6-0.3-2.2-0.4c-0.6-0.1-1.2-0.1-1.7-0.1c-2.9,0-5.2,0.5-6.9,1.6c-1.8,1.1-3.1,2.3-4.1,3.8
		c-1,1.5-1.6,3-2,4.5c-0.4,1.5-0.5,2.8-0.5,3.7v27h-12.6V43.5z"/>
	<path class="st0" d="M396.1,93.9h-12v-7.6h-0.2c-1.8,2.9-4.2,5.2-7.3,6.7c-3.1,1.5-6.5,2.3-10,2.3c-3.9,0-7.3-0.7-10.3-2.2
		c-3-1.4-5.6-3.4-7.8-5.8c-2.1-2.4-3.8-5.2-4.9-8.5c-1.2-3.3-1.7-6.7-1.7-10.4c0-3.7,0.6-7.2,1.8-10.4c1.2-3.2,2.9-6,5-8.4
		c2.2-2.4,4.8-4.3,7.8-5.6c3-1.4,6.3-2,9.9-2c2.3,0,4.4,0.3,6.2,0.8c1.8,0.5,3.4,1.2,4.8,1.9c1.4,0.8,2.5,1.6,3.5,2.5
		c1,0.9,1.8,1.8,2.4,2.6h0.3V14.5h12.6V93.9z M354.6,68.5c0,2,0.3,3.9,0.9,5.9c0.6,2,1.5,3.7,2.7,5.2c1.2,1.5,2.7,2.8,4.5,3.8
		c1.8,1,4,1.5,6.4,1.5c2.3,0,4.4-0.5,6.2-1.4c1.8-0.9,3.4-2.2,4.7-3.7c1.3-1.5,2.3-3.3,2.9-5.2c0.7-1.9,1-3.9,1-5.8
		c0-2-0.3-3.9-1-5.9c-0.7-2-1.6-3.7-2.9-5.2c-1.3-1.5-2.9-2.8-4.7-3.8c-1.8-1-3.9-1.5-6.2-1.5c-2.5,0-4.6,0.5-6.4,1.4
		c-1.8,0.9-3.3,2.2-4.5,3.7c-1.2,1.5-2.1,3.3-2.7,5.2C354.9,64.6,354.6,66.5,354.6,68.5z"/>
	<path class="st0" d="M442.7,87.5h-0.3c-1.3,2.2-3.3,4.1-6.1,5.5c-2.8,1.4-6,2.2-9.6,2.2c-2,0-4.1-0.3-6.4-0.8
		c-2.2-0.5-4.2-1.4-6.1-2.6c-1.9-1.2-3.4-2.8-4.6-4.8c-1.2-2-1.8-4.5-1.8-7.4c0-3.8,1.1-6.8,3.2-9c2.1-2.2,4.9-4,8.2-5.1
		c3.4-1.2,7.1-2,11.2-2.4c4.1-0.4,8.1-0.6,12-0.6v-1.3c0-3.2-1.1-5.5-3.4-7c-2.3-1.5-5-2.3-8.1-2.3c-2.7,0-5.2,0.6-7.7,1.7
		c-2.5,1.1-4.5,2.5-6.1,4.1l-6.5-7.7c2.9-2.7,6.2-4.7,9.9-6c3.7-1.3,7.5-2,11.4-2c4.5,0,8.2,0.6,11.1,1.9c2.9,1.3,5.2,2.9,6.9,4.9
		c1.7,2,2.9,4.3,3.5,6.8c0.7,2.5,1,5,1,7.6v30.7h-11.8V87.5z M442.5,70.9h-2.8c-2,0-4.2,0.1-6.4,0.3c-2.2,0.2-4.3,0.6-6.2,1.2
		c-1.9,0.6-3.5,1.4-4.7,2.5c-1.3,1.1-1.9,2.6-1.9,4.5c0,1.2,0.3,2.2,0.8,3c0.5,0.8,1.2,1.5,2,1.9c0.8,0.5,1.8,0.8,2.8,1.1
		s2.1,0.3,3.2,0.3c4.3,0,7.6-1.2,9.9-3.5c2.2-2.3,3.4-5.5,3.4-9.5V70.9z"/>
	<path class="st0" d="M469.2,43.5h12v8.1h0.2c1.1-2.5,3.1-4.7,5.8-6.7c2.8-1.9,6-2.9,9.8-2.9c3.3,0,6.1,0.6,8.5,1.7
		c2.3,1.2,4.3,2.7,5.8,4.6c1.5,1.9,2.6,4.1,3.3,6.5c0.7,2.5,1,5,1,7.6v31.5H503V66c0-1.5-0.1-3-0.3-4.6c-0.2-1.6-0.7-3.1-1.4-4.4
		c-0.7-1.3-1.7-2.4-2.9-3.2c-1.2-0.8-2.9-1.3-4.9-1.3c-2,0-3.8,0.4-5.2,1.2c-1.5,0.8-2.7,1.8-3.6,3.1c-0.9,1.3-1.7,2.7-2.2,4.4
		c-0.5,1.6-0.7,3.3-0.7,5v27.7h-12.6V43.5z"/>
	<path class="st0" d="M225.5,123.1c-1.4-1.8-3.4-3.3-5.9-4.6c-2.6-1.2-5.1-1.8-7.7-1.8c-1.5,0-3.1,0.2-4.6,0.6
		c-1.5,0.4-2.9,1-4.2,1.8c-1.3,0.8-2.3,1.9-3.1,3.2c-0.8,1.3-1.2,2.9-1.2,4.7c0,1.7,0.3,3.1,1,4.3c0.7,1.2,1.7,2.2,2.9,3
		c1.2,0.8,2.7,1.6,4.5,2.2c1.7,0.6,3.7,1.3,5.8,1.9c2.4,0.8,4.8,1.6,7.4,2.6c2.6,1,4.9,2.3,7,3.9c2.1,1.6,3.9,3.6,5.2,6.1
		c1.4,2.5,2,5.5,2,9.1c0,4-0.7,7.5-2.2,10.4c-1.5,3-3.4,5.4-5.9,7.4c-2.5,2-5.3,3.4-8.6,4.4c-3.3,1-6.8,1.5-10.4,1.5
		c-4.8,0-9.6-0.9-14.2-2.7c-4.6-1.8-8.4-4.4-11.3-7.9l9.5-8.8c1.8,2.5,4.3,4.5,7.3,6c3,1.5,6,2.2,9,2.2c1.5,0,3.1-0.2,4.7-0.6
		c1.6-0.4,3.1-1,4.4-1.9c1.3-0.9,2.3-2,3.1-3.4s1.2-3.1,1.2-5.1c0-2-0.5-3.6-1.4-4.9c-0.9-1.3-2.1-2.4-3.7-3.4
		c-1.5-0.9-3.4-1.8-5.5-2.5c-2.1-0.7-4.3-1.4-6.6-2.2c-2.2-0.7-4.5-1.5-6.7-2.5c-2.2-1-4.3-2.3-6-3.9c-1.8-1.6-3.2-3.6-4.4-5.9
		c-1.1-2.3-1.7-5.3-1.7-8.8c0-3.8,0.8-7,2.4-9.8c1.6-2.7,3.6-5,6.2-6.8c2.6-1.8,5.5-3.1,8.7-4c3.3-0.9,6.6-1.3,9.9-1.3
		c3.8,0,7.6,0.7,11.5,2c3.9,1.3,7.3,3.3,10.1,6L225.5,123.1z"/>
	<path class="st0" d="M239.3,141.6v-10.1h8.8v-14.6h12.4v14.6h12.6v10.1h-12.6V165c0,2.2,0.4,4.1,1.2,5.6c0.8,1.5,2.6,2.2,5.4,2.2
		c0.8,0,1.7-0.1,2.7-0.3c1-0.2,1.9-0.4,2.6-0.8l0.4,9.9c-1.1,0.4-2.5,0.8-4,1c-1.5,0.2-3,0.4-4.4,0.4c-3.4,0-6.1-0.5-8.2-1.4
		c-2.1-0.9-3.8-2.2-5-3.9c-1.2-1.6-2.1-3.5-2.5-5.7c-0.5-2.1-0.7-4.4-0.7-6.9v-23.5H239.3z"/>
	<path class="st0" d="M330.4,157.3c0,0.6,0,1.1,0,1.7c0,0.6,0,1.1-0.1,1.7h-38.3c0.1,1.8,0.6,3.5,1.4,5c0.8,1.5,1.9,2.8,3.2,3.9
		c1.3,1.1,2.8,1.9,4.5,2.6c1.7,0.6,3.4,0.9,5.2,0.9c3.1,0,5.8-0.6,8-1.7c2.2-1.2,4-2.7,5.4-4.8l8.4,6.7c-5,6.7-12.2,10.1-21.6,10.1
		c-3.9,0-7.5-0.6-10.8-1.8c-3.3-1.2-6.1-3-8.6-5.2c-2.4-2.2-4.3-5-5.7-8.2c-1.4-3.3-2-6.9-2-11.1c0-4.1,0.7-7.8,2-11.1
		c1.4-3.3,3.2-6.2,5.6-8.5c2.4-2.3,5.2-4.2,8.5-5.5c3.3-1.3,6.8-1.9,10.6-1.9c3.5,0,6.7,0.6,9.7,1.7c3,1.2,5.5,2.9,7.7,5.1
		c2.2,2.3,3.9,5.1,5.1,8.5C329.8,148.8,330.4,152.8,330.4,157.3z M317.8,151.6c0-1.6-0.2-3.1-0.7-4.6c-0.5-1.5-1.2-2.8-2.2-3.9
		c-1-1.1-2.2-2-3.7-2.7c-1.5-0.7-3.3-1-5.3-1c-3.8,0-7,1.1-9.6,3.4c-2.6,2.3-4.1,5.2-4.4,8.8H317.8z"/>
	<path class="st0" d="M335.4,131.5h13.7l10.5,36.1h0.2l10.8-36.1H384l10.9,36.1h0.2l10.7-36.1H419l-17.4,50.4h-12.8l-11.4-35.3h-0.2
		l-11.3,35.3h-12.8L335.4,131.5z"/>
	<path class="st0" d="M458.3,175.5h-0.3c-1.3,2.2-3.3,4.1-6.1,5.5c-2.8,1.4-6,2.2-9.6,2.2c-2,0-4.1-0.3-6.4-0.8
		c-2.2-0.5-4.2-1.4-6.1-2.6c-1.9-1.2-3.4-2.8-4.6-4.8c-1.2-2-1.8-4.5-1.8-7.4c0-3.8,1.1-6.8,3.2-9c2.1-2.2,4.9-4,8.2-5.1
		c3.4-1.2,7.1-2,11.2-2.4c4.1-0.4,8.1-0.6,12-0.6v-1.3c0-3.2-1.1-5.5-3.4-7c-2.3-1.5-5-2.3-8.1-2.3c-2.7,0-5.2,0.6-7.7,1.7
		c-2.5,1.1-4.5,2.5-6.1,4.1l-6.5-7.7c2.9-2.7,6.2-4.7,9.9-6c3.7-1.3,7.5-2,11.4-2c4.5,0,8.2,0.6,11.1,1.9c2.9,1.3,5.2,2.9,6.9,4.9
		c1.7,2,2.9,4.3,3.5,6.8c0.7,2.5,1,5,1,7.6v30.7h-11.8V175.5z M458,158.9h-2.8c-2,0-4.2,0.1-6.4,0.3c-2.2,0.2-4.3,0.6-6.2,1.2
		s-3.5,1.4-4.7,2.5c-1.3,1.1-1.9,2.6-1.9,4.5c0,1.2,0.3,2.2,0.8,3c0.5,0.8,1.2,1.5,2,1.9c0.8,0.5,1.8,0.8,2.8,1s2.1,0.3,3.2,0.3
		c4.3,0,7.6-1.2,9.9-3.5c2.2-2.3,3.4-5.5,3.4-9.5V158.9z"/>
	<path class="st0" d="M484.7,131.5h12.1v8.4h0.2c1.4-2.9,3.4-5.3,5.9-7.1c2.5-1.8,5.5-2.7,8.8-2.7c0.5,0,1,0,1.6,0.1
		c0.6,0,1,0.1,1.5,0.3v11.5c-0.8-0.2-1.6-0.3-2.2-0.4c-0.6-0.1-1.2-0.1-1.7-0.1c-2.9,0-5.2,0.5-6.9,1.6c-1.8,1-3.1,2.3-4.1,3.8
		c-1,1.5-1.6,3-2,4.5c-0.4,1.5-0.5,2.8-0.5,3.7v27h-12.6V131.5z"/>
	<path class="st0" d="M521.2,141.6v-10.1h8.8v-14.6h12.4v14.6H555v10.1h-12.6V165c0,2.2,0.4,4.1,1.2,5.6c0.8,1.5,2.6,2.2,5.4,2.2
		c0.8,0,1.7-0.1,2.7-0.3c1-0.2,1.9-0.4,2.6-0.8l0.4,9.9c-1.1,0.4-2.5,0.8-4,1c-1.5,0.2-3,0.4-4.4,0.4c-3.4,0-6.1-0.5-8.2-1.4
		c-2.1-0.9-3.8-2.2-5-3.9c-1.2-1.6-2.1-3.5-2.5-5.7c-0.5-2.1-0.7-4.4-0.7-6.9v-23.5H521.2z"/>
</g>
</svg>
