<?xml version="1.0" encoding="utf-8"?>
<!-- Generator: Adobe Illustrator 21.1.0, SVG Export Plug-In . SVG Version: 6.00 Build 0)  -->
<svg version="1.1" id="Layer_1" xmlns="http://www.w3.org/2000/svg" xmlns:xlink="http://www.w3.org/1999/xlink" x="0px" y="0px"
	 viewBox="0 0 755.4 199.2" style="enable-background:new 0 0 755.4 199.2;" xml:space="preserve">
<style type="text/css">
	.st0{fill:none;}
	.st1{enable-background:new    ;}
	.st2{fill:#00ADEE;}
	.st3{fill:#808184;}
	.st4{fill:none;stroke:#808184;stroke-width:1.5;stroke-miterlimit:10;}
</style>
<g>
	<rect x="185.3" y="42.4" class="st0" width="575.7" height="64.3"/>
</g>
<g class="st1">
	<path class="st2" d="M217.4,82.1c0,2-0.2,4-0.6,6.2c-0.4,2.2-1.2,4.2-2.4,6c-1.2,1.9-2.8,3.4-4.9,4.6s-4.8,1.8-8.1,1.8
		c-4.3,0-7.8-1.1-10.4-3.2c-2.6-2.2-4.4-5-5.3-8.5l8.7-2.5c0.5,1.8,1.3,3.2,2.5,4.2c1.2,1,2.6,1.5,4.3,1.5c1.4,0,2.5-0.3,3.4-0.8
		c0.9-0.5,1.6-1.2,2-2.1c0.5-0.9,0.8-2,1-3.3c0.2-1.3,0.3-2.7,0.3-4.2V46h9.5V82.1z"/>
	<path class="st2" d="M226.1,81.1c0-2.9,0.5-5.5,1.5-7.8c1-2.3,2.4-4.3,4.2-6c1.8-1.7,3.8-2.9,6.3-3.8c2.4-0.9,5-1.4,7.7-1.4
		s5.3,0.5,7.7,1.4c2.4,0.9,4.5,2.2,6.3,3.8c1.8,1.7,3.2,3.7,4.2,6c1,2.3,1.5,4.9,1.5,7.8c0,2.9-0.5,5.5-1.5,7.8
		c-1,2.4-2.4,4.4-4.2,6.1c-1.8,1.7-3.8,3-6.3,4c-2.4,1-5,1.4-7.7,1.4s-5.3-0.5-7.7-1.4s-4.5-2.3-6.3-4c-1.8-1.7-3.2-3.7-4.2-6.1
		C226.7,86.6,226.1,84,226.1,81.1z M235.3,81.1c0,1.4,0.2,2.8,0.6,4.2c0.4,1.4,1.1,2.7,1.9,3.8c0.9,1.1,1.9,2,3.2,2.7
		c1.3,0.7,2.9,1.1,4.7,1.1c1.8,0,3.4-0.4,4.7-1.1c1.3-0.7,2.4-1.6,3.2-2.7c0.9-1.1,1.5-2.4,1.9-3.8c0.4-1.4,0.6-2.8,0.6-4.2
		c0-1.4-0.2-2.8-0.6-4.2c-0.4-1.4-1.1-2.6-1.9-3.7c-0.9-1.1-1.9-2-3.2-2.7c-1.3-0.7-2.9-1-4.7-1c-1.8,0-3.4,0.3-4.7,1
		c-1.3,0.7-2.4,1.6-3.2,2.7c-0.9,1.1-1.5,2.3-1.9,3.7C235.6,78.3,235.3,79.7,235.3,81.1z"/>
	<path class="st2" d="M274.2,63.2h8.7v6h0.2c1-2.1,2.4-3.8,4.2-5.1c1.8-1.3,3.9-2,6.3-2c0.4,0,0.7,0,1.1,0c0.4,0,0.8,0.1,1.1,0.2
		v8.3c-0.6-0.2-1.1-0.3-1.5-0.3c-0.4,0-0.8-0.1-1.2-0.1c-2.1,0-3.7,0.4-5,1.1c-1.3,0.8-2.2,1.7-2.9,2.7c-0.7,1.1-1.2,2.1-1.4,3.2
		c-0.3,1.1-0.4,2-0.4,2.6v19.4h-9V63.2z"/>
	<path class="st2" d="M337.1,99.4h-8.6v-5.4h-0.2c-1.3,2.1-3,3.7-5.2,4.8c-2.2,1.1-4.6,1.7-7.2,1.7c-2.8,0-5.2-0.5-7.4-1.5
		c-2.2-1-4-2.4-5.6-4.1c-1.5-1.7-2.7-3.8-3.5-6.1c-0.8-2.3-1.2-4.8-1.2-7.5c0-2.7,0.4-5.2,1.3-7.5c0.9-2.3,2.1-4.3,3.6-6
		c1.6-1.7,3.4-3.1,5.6-4c2.2-1,4.5-1.5,7.1-1.5c1.7,0,3.1,0.2,4.4,0.6c1.3,0.4,2.5,0.8,3.4,1.4c1,0.6,1.8,1.2,2.5,1.8
		c0.7,0.7,1.3,1.3,1.7,1.9h0.2V42.4h9V99.4z M307.3,81.1c0,1.4,0.2,2.8,0.6,4.2c0.4,1.4,1.1,2.7,1.9,3.8c0.9,1.1,1.9,2,3.2,2.7
		c1.3,0.7,2.8,1.1,4.6,1.1c1.7,0,3.1-0.3,4.4-1c1.3-0.7,2.4-1.6,3.4-2.7c0.9-1.1,1.6-2.3,2.1-3.7c0.5-1.4,0.7-2.8,0.7-4.2
		c0-1.4-0.2-2.8-0.7-4.2c-0.5-1.4-1.2-2.7-2.1-3.8c-0.9-1.1-2-2-3.4-2.7c-1.3-0.7-2.8-1.1-4.4-1.1c-1.8,0-3.3,0.3-4.6,1
		c-1.3,0.7-2.4,1.6-3.2,2.7c-0.9,1.1-1.5,2.3-1.9,3.7C307.6,78.3,307.3,79.7,307.3,81.1z"/>
	<path class="st2" d="M370.6,94.8h-0.2c-0.9,1.6-2.4,2.9-4.4,4c-2,1-4.3,1.5-6.9,1.5c-1.5,0-3-0.2-4.6-0.6s-3-1-4.4-1.9
		c-1.3-0.9-2.4-2-3.3-3.5c-0.9-1.4-1.3-3.2-1.3-5.3c0-2.7,0.8-4.9,2.3-6.5c1.5-1.6,3.5-2.8,5.9-3.7c2.4-0.9,5.1-1.4,8-1.7
		c2.9-0.3,5.8-0.4,8.6-0.4v-0.9c0-2.3-0.8-3.9-2.5-5c-1.6-1.1-3.6-1.6-5.8-1.6c-1.9,0-3.7,0.4-5.5,1.2c-1.8,0.8-3.2,1.8-4.4,2.9
		l-4.7-5.5c2.1-1.9,4.4-3.3,7.1-4.3c2.7-1,5.4-1.4,8.2-1.4c3.2,0,5.9,0.5,8,1.4c2.1,0.9,3.7,2.1,4.9,3.5s2,3.1,2.5,4.9
		c0.5,1.8,0.7,3.6,0.7,5.4v22h-8.4V94.8z M370.4,82.9h-2c-1.5,0-3,0.1-4.6,0.2c-1.6,0.1-3.1,0.4-4.4,0.8c-1.4,0.4-2.5,1-3.4,1.8
		c-0.9,0.8-1.4,1.8-1.4,3.2c0,0.9,0.2,1.6,0.6,2.1c0.4,0.6,0.9,1,1.5,1.4c0.6,0.4,1.3,0.6,2,0.8c0.8,0.2,1.5,0.2,2.3,0.2
		c3.1,0,5.5-0.8,7.1-2.5c1.6-1.7,2.4-3.9,2.4-6.8V82.9z"/>
	<path class="st2" d="M389.6,63.2h8.6V69h0.2c0.8-1.8,2.2-3.4,4.2-4.8c2-1.4,4.3-2.1,7-2.1c2.4,0,4.4,0.4,6.1,1.2
		c1.7,0.8,3.1,1.9,4.1,3.3c1.1,1.4,1.9,2.9,2.4,4.7c0.5,1.8,0.8,3.6,0.8,5.4v22.6h-9V79.3c0-1.1-0.1-2.2-0.2-3.3
		c-0.2-1.2-0.5-2.2-1-3.1c-0.5-0.9-1.2-1.7-2.1-2.3c-0.9-0.6-2-0.9-3.5-0.9c-1.5,0-2.7,0.3-3.8,0.9c-1.1,0.6-1.9,1.3-2.6,2.2
		c-0.7,0.9-1.2,1.9-1.5,3.1c-0.4,1.2-0.5,2.4-0.5,3.6v19.9h-9V63.2z"/>
	<path class="st2" d="M480,57.1c-1-1.3-2.4-2.4-4.3-3.3c-1.8-0.9-3.7-1.3-5.5-1.3c-1.1,0-2.2,0.1-3.3,0.4c-1.1,0.3-2.1,0.7-3,1.3
		c-0.9,0.6-1.6,1.3-2.2,2.3c-0.6,0.9-0.9,2-0.9,3.4c0,1.2,0.3,2.2,0.8,3.1c0.5,0.9,1.2,1.6,2.1,2.2c0.9,0.6,1.9,1.1,3.2,1.6
		c1.3,0.5,2.6,0.9,4.1,1.4c1.7,0.6,3.5,1.2,5.3,1.9c1.8,0.7,3.5,1.6,5.1,2.8c1.5,1.2,2.8,2.6,3.8,4.4c1,1.8,1.5,3.9,1.5,6.6
		c0,2.9-0.5,5.4-1.6,7.5c-1.1,2.1-2.5,3.9-4.2,5.3c-1.8,1.4-3.8,2.5-6.2,3.2c-2.4,0.7-4.9,1.1-7.5,1.1c-3.5,0-6.9-0.6-10.2-1.9
		s-6-3.2-8.1-5.7l6.8-6.3c1.3,1.8,3.1,3.2,5.2,4.3c2.2,1.1,4.3,1.6,6.4,1.6c1.1,0,2.2-0.1,3.4-0.4c1.2-0.3,2.2-0.7,3.1-1.4
		c0.9-0.7,1.7-1.5,2.3-2.5c0.6-1,0.9-2.2,0.9-3.7c0-1.4-0.3-2.6-1-3.5c-0.7-0.9-1.5-1.7-2.6-2.4c-1.1-0.7-2.4-1.3-3.9-1.8
		c-1.5-0.5-3.1-1-4.7-1.6c-1.6-0.5-3.2-1.1-4.8-1.8c-1.6-0.7-3.1-1.6-4.3-2.8c-1.3-1.2-2.3-2.6-3.1-4.3c-0.8-1.7-1.2-3.8-1.2-6.3
		c0-2.7,0.6-5.1,1.7-7s2.6-3.6,4.4-4.9c1.8-1.3,3.9-2.2,6.3-2.9c2.3-0.6,4.7-0.9,7.1-0.9c2.7,0,5.5,0.5,8.3,1.4
		c2.8,1,5.2,2.4,7.3,4.3L480,57.1z"/>
	<path class="st2" d="M489.9,70.4v-7.2h6.3V52.7h8.9v10.5h9v7.2h-9v16.8c0,1.6,0.3,2.9,0.9,4c0.6,1.1,1.9,1.6,3.9,1.6
		c0.6,0,1.3-0.1,2-0.2c0.7-0.1,1.3-0.3,1.9-0.6l0.3,7.1c-0.8,0.3-1.8,0.5-2.9,0.7c-1.1,0.2-2.2,0.3-3.2,0.3c-2.4,0-4.4-0.3-5.9-1
		c-1.5-0.7-2.7-1.6-3.6-2.8c-0.9-1.2-1.5-2.5-1.8-4.1c-0.3-1.5-0.5-3.2-0.5-4.9V70.4H489.9z"/>
	<path class="st2" d="M555.3,81.7c0,0.4,0,0.8,0,1.2c0,0.4,0,0.8-0.1,1.2h-27.5c0.1,1.3,0.4,2.5,1,3.6c0.6,1.1,1.3,2,2.3,2.8
		c1,0.8,2,1.4,3.2,1.8c1.2,0.5,2.5,0.7,3.8,0.7c2.3,0,4.2-0.4,5.7-1.2c1.6-0.8,2.8-2,3.8-3.4l6,4.8c-3.6,4.8-8.7,7.2-15.5,7.2
		c-2.8,0-5.4-0.4-7.8-1.3s-4.4-2.1-6.1-3.7c-1.7-1.6-3.1-3.6-4.1-5.9s-1.5-5-1.5-8c0-2.9,0.5-5.6,1.5-8c1-2.4,2.3-4.4,4-6.1
		c1.7-1.7,3.7-3,6.1-3.9c2.3-0.9,4.9-1.4,7.6-1.4c2.5,0,4.8,0.4,7,1.2c2.1,0.8,4,2.1,5.5,3.7c1.6,1.6,2.8,3.7,3.7,6.1
		C554.8,75.6,555.3,78.5,555.3,81.7z M546.2,77.6c0-1.2-0.2-2.3-0.5-3.3c-0.3-1.1-0.8-2-1.5-2.8c-0.7-0.8-1.6-1.4-2.7-1.9
		c-1.1-0.5-2.3-0.7-3.8-0.7c-2.7,0-5,0.8-6.9,2.5c-1.9,1.6-2.9,3.7-3.1,6.3H546.2z"/>
	<path class="st2" d="M558.9,63.2h9.8l7.5,25.9h0.2l7.8-25.9h9.6l7.8,25.9h0.2l7.7-25.9h9.4l-12.5,36.2h-9.2L589,74h-0.2l-8.1,25.3
		h-9.2L558.9,63.2z"/>
	<path class="st2" d="M647.1,94.8h-0.2c-0.9,1.6-2.4,2.9-4.4,4c-2,1-4.3,1.5-6.9,1.5c-1.5,0-3-0.2-4.6-0.6c-1.6-0.4-3-1-4.4-1.9
		c-1.3-0.9-2.4-2-3.3-3.5c-0.9-1.4-1.3-3.2-1.3-5.3c0-2.7,0.8-4.9,2.3-6.5c1.5-1.6,3.5-2.8,5.9-3.7c2.4-0.9,5.1-1.4,8-1.7
		c2.9-0.3,5.8-0.4,8.6-0.4v-0.9c0-2.3-0.8-3.9-2.4-5c-1.6-1.1-3.6-1.6-5.8-1.6c-1.9,0-3.7,0.4-5.5,1.2c-1.8,0.8-3.2,1.8-4.4,2.9
		l-4.7-5.5c2.1-1.9,4.4-3.3,7.1-4.3c2.7-1,5.4-1.4,8.2-1.4c3.2,0,5.9,0.5,8,1.4c2.1,0.9,3.7,2.1,4.9,3.5c1.2,1.5,2,3.1,2.5,4.9
		c0.5,1.8,0.7,3.6,0.7,5.4v22h-8.4V94.8z M647,82.9h-2c-1.5,0-3,0.1-4.6,0.2c-1.6,0.1-3.1,0.4-4.4,0.8c-1.4,0.4-2.5,1-3.4,1.8
		c-0.9,0.8-1.4,1.8-1.4,3.2c0,0.9,0.2,1.6,0.6,2.1c0.4,0.6,0.9,1,1.5,1.4c0.6,0.4,1.3,0.6,2,0.8c0.8,0.2,1.5,0.2,2.3,0.2
		c3.1,0,5.5-0.8,7.1-2.5c1.6-1.7,2.4-3.9,2.4-6.8V82.9z"/>
</g>
<g class="st1">
	<path class="st2" d="M667.9,63.2h8.7v6h0.2c1-2.1,2.4-3.8,4.2-5.1c1.8-1.3,3.9-2,6.3-2c0.4,0,0.7,0,1.1,0c0.4,0,0.8,0.1,1.1,0.2
		v8.3c-0.6-0.2-1.1-0.3-1.5-0.3c-0.4,0-0.8-0.1-1.2-0.1c-2.1,0-3.7,0.4-5,1.1c-1.3,0.8-2.2,1.7-2.9,2.7c-0.7,1.1-1.2,2.1-1.4,3.2
		c-0.3,1.1-0.4,2-0.4,2.6v19.4h-9V63.2z"/>
</g>
<g class="st1">
	<path class="st2" d="M694.1,70.4v-7.2h6.3V52.7h8.9v10.5h9v7.2h-9v16.8c0,1.6,0.3,2.9,0.9,4c0.6,1.1,1.9,1.6,3.9,1.6
		c0.6,0,1.3-0.1,2-0.2c0.7-0.1,1.3-0.3,1.9-0.6l0.3,7.1c-0.8,0.3-1.8,0.5-2.9,0.7c-1.1,0.2-2.2,0.3-3.2,0.3c-2.4,0-4.4-0.3-5.9-1
		s-2.7-1.6-3.6-2.8c-0.9-1.2-1.5-2.5-1.8-4.1c-0.3-1.5-0.5-3.2-0.5-4.9V70.4H694.1z"/>
</g>
<g>
	<rect x="183.9" y="122.3" class="st0" width="531.4" height="64.3"/>
</g>
<g class="st1">
	<path class="st3" d="M201.2,147.1c-0.7,1.1-1.7,1.9-2.9,2.5c-1.2,0.6-2.4,0.8-3.6,0.8c-1.3,0-2.6-0.2-3.6-0.7
		c-1.1-0.5-2-1.1-2.8-1.9c-0.8-0.8-1.4-1.8-1.8-2.9c-0.4-1.1-0.6-2.3-0.6-3.5s0.2-2.4,0.6-3.5c0.4-1.1,1-2,1.8-2.9
		c0.8-0.8,1.7-1.4,2.8-1.9c1.1-0.5,2.3-0.7,3.6-0.7c1.2,0,2.4,0.3,3.6,0.9c1.2,0.6,2.1,1.4,2.9,2.5h0.1v-13.5h2.5V150h-2.5
		L201.2,147.1L201.2,147.1z M188.5,141.4c0,1,0.1,1.8,0.4,2.7s0.7,1.6,1.3,2.2c0.5,0.6,1.2,1.1,2,1.5s1.7,0.5,2.7,0.5
		c1,0,1.8-0.2,2.6-0.5s1.5-0.8,2.1-1.4c0.6-0.6,1-1.3,1.4-2.2c0.3-0.8,0.5-1.7,0.5-2.7s-0.2-1.9-0.5-2.7c-0.3-0.8-0.8-1.6-1.4-2.2
		c-0.6-0.6-1.3-1.1-2.1-1.5c-0.8-0.4-1.7-0.5-2.6-0.5c-1,0-1.9,0.2-2.7,0.5s-1.5,0.9-2,1.5s-1,1.4-1.3,2.2
		C188.7,139.6,188.5,140.5,188.5,141.4z"/>
	<path class="st3" d="M226,140.9c0,0.2,0,0.4,0,0.5c0,0.2,0,0.4,0,0.6h-14.2c0,0.9,0.2,1.7,0.5,2.4c0.3,0.8,0.8,1.4,1.3,2
		c0.6,0.6,1.2,1,2,1.3c0.8,0.3,1.6,0.5,2.4,0.5c1.3,0,2.4-0.3,3.3-0.9c0.9-0.6,1.7-1.3,2.1-2.1l1.9,1.5c-1,1.3-2.2,2.2-3.4,2.8
		c-1.2,0.6-2.6,0.8-4,0.8c-1.3,0-2.4-0.2-3.5-0.7c-1.1-0.5-2-1.1-2.8-1.9c-0.8-0.8-1.4-1.8-1.8-2.9c-0.5-1.1-0.7-2.3-0.7-3.6
		s0.2-2.5,0.7-3.6c0.4-1.1,1-2,1.8-2.9c0.8-0.8,1.7-1.4,2.7-1.9c1-0.5,2.2-0.7,3.4-0.7c1.3,0,2.5,0.2,3.5,0.7s1.9,1.1,2.6,1.8
		c0.7,0.8,1.2,1.7,1.6,2.7C225.8,138.6,226,139.7,226,140.9z M223.5,140.1c-0.1-1.6-0.6-2.9-1.6-4c-1-1.1-2.3-1.6-4.1-1.6
		c-0.8,0-1.6,0.2-2.3,0.5c-0.7,0.3-1.3,0.7-1.9,1.2c-0.5,0.5-1,1.1-1.3,1.8c-0.3,0.7-0.5,1.4-0.5,2.1H223.5z"/>
	<path class="st3" d="M240.4,136.9c-0.4-0.7-0.9-1.3-1.7-1.7c-0.7-0.5-1.6-0.7-2.5-0.7c-0.4,0-0.9,0-1.3,0.1
		c-0.4,0.1-0.8,0.3-1.2,0.5c-0.3,0.2-0.6,0.5-0.8,0.8c-0.2,0.3-0.3,0.7-0.3,1.2c0,0.8,0.3,1.4,1,1.8c0.7,0.4,1.7,0.8,3.1,1.1
		c2,0.4,3.5,1,4.5,1.8c1,0.8,1.4,1.9,1.4,3.2c0,1-0.2,1.8-0.6,2.5c-0.4,0.7-0.9,1.2-1.5,1.6c-0.6,0.4-1.3,0.7-2.1,0.9
		c-0.8,0.2-1.5,0.3-2.3,0.3c-1.3,0-2.5-0.3-3.8-0.8c-1.2-0.5-2.2-1.4-3-2.5l2-1.5c0.4,0.8,1.1,1.4,1.9,1.9s1.8,0.8,2.8,0.8
		c0.5,0,1,0,1.5-0.1s0.9-0.3,1.3-0.5c0.4-0.2,0.7-0.6,0.9-0.9c0.2-0.4,0.3-0.8,0.3-1.4c0-0.9-0.4-1.6-1.3-2
		c-0.9-0.5-2.1-0.9-3.7-1.3c-0.5-0.1-1.1-0.3-1.6-0.5c-0.6-0.2-1.1-0.5-1.6-0.8c-0.5-0.4-0.9-0.8-1.2-1.3c-0.3-0.5-0.5-1.2-0.5-2
		c0-0.9,0.2-1.6,0.5-2.2c0.3-0.6,0.8-1.1,1.4-1.5c0.6-0.4,1.2-0.7,2-0.9c0.7-0.2,1.5-0.3,2.3-0.3c1.2,0,2.4,0.3,3.5,0.8
		c1.1,0.5,2,1.3,2.5,2.3L240.4,136.9z"/>
	<path class="st3" d="M250.6,126.3c0,0.5-0.2,0.9-0.5,1.3c-0.4,0.3-0.8,0.5-1.2,0.5c-0.4,0-0.8-0.2-1.2-0.5
		c-0.4-0.3-0.5-0.7-0.5-1.3s0.2-0.9,0.5-1.3c0.4-0.3,0.8-0.5,1.2-0.5c0.4,0,0.8,0.2,1.2,0.5C250.4,125.3,250.6,125.8,250.6,126.3z
		 M250.1,150h-2.5v-17.1h2.5V150z"/>
	<path class="st3" d="M257.6,153.4c0.7,0.9,1.6,1.6,2.8,2.2c1.2,0.6,2.4,0.9,3.7,0.9c1.2,0,2.3-0.2,3.1-0.5c0.9-0.4,1.5-0.8,2.1-1.4
		c0.5-0.6,0.9-1.3,1.2-2.1c0.2-0.8,0.4-1.7,0.4-2.6v-3.2h-0.1c-0.7,1.1-1.6,1.9-2.8,2.5c-1.2,0.6-2.4,0.9-3.7,0.9
		c-1.3,0-2.6-0.2-3.6-0.7c-1.1-0.4-2-1-2.8-1.8s-1.4-1.7-1.8-2.8c-0.4-1.1-0.6-2.2-0.6-3.5c0-1.2,0.2-2.4,0.6-3.4
		c0.4-1.1,1-2,1.8-2.8c0.8-0.8,1.7-1.4,2.8-1.9c1.1-0.5,2.3-0.7,3.6-0.7c1.2,0,2.5,0.3,3.7,0.9c1.2,0.6,2.1,1.4,2.8,2.5h0.1v-3h2.5
		v17c0,0.9-0.1,1.9-0.4,3s-0.7,2-1.4,2.9s-1.6,1.6-2.8,2.2c-1.2,0.6-2.7,0.9-4.6,0.9c-1.6,0-3.1-0.3-4.5-0.9
		c-1.4-0.6-2.7-1.5-3.7-2.5L257.6,153.4z M258.1,141.2c0,0.9,0.1,1.8,0.4,2.6c0.3,0.8,0.7,1.5,1.3,2.1c0.5,0.6,1.2,1.1,2,1.4
		c0.8,0.4,1.7,0.5,2.7,0.5c1,0,1.8-0.2,2.6-0.5s1.5-0.8,2.1-1.4c0.6-0.6,1-1.3,1.4-2.1c0.3-0.8,0.5-1.7,0.5-2.7
		c0-0.9-0.2-1.8-0.5-2.6c-0.3-0.8-0.8-1.5-1.4-2.1c-0.6-0.6-1.3-1.1-2.1-1.5s-1.7-0.5-2.6-0.5c-1,0-1.9,0.2-2.7,0.5s-1.5,0.9-2,1.5
		c-0.5,0.6-1,1.3-1.3,2.1S258.1,140.3,258.1,141.2z"/>
	<path class="st3" d="M282,132.9c0,0.5,0.1,1,0.1,1.5c0,0.6,0,1,0,1.4h0.1c0.5-1,1.3-1.8,2.4-2.4c1.1-0.6,2.3-0.9,3.5-0.9
		c2.2,0,3.8,0.6,4.9,1.9c1.1,1.3,1.6,3,1.6,5.1V150h-2.5v-9.5c0-0.9-0.1-1.7-0.2-2.4c-0.1-0.7-0.4-1.4-0.7-1.9
		c-0.4-0.5-0.8-0.9-1.4-1.2c-0.6-0.3-1.3-0.4-2.2-0.4c-0.7,0-1.3,0.1-1.9,0.4c-0.6,0.3-1.2,0.7-1.7,1.2c-0.5,0.5-0.9,1.2-1.2,2.1
		c-0.3,0.8-0.4,1.8-0.4,3v8.8h-2.5v-13.3c0-0.5,0-1.1,0-1.8c0-0.7-0.1-1.4-0.1-2H282z"/>
</g>
<g class="st1">
	<path class="st3" d="M308.4,142.7c0-0.5,0.1-1,0.3-1.4c0.2-0.4,0.5-0.8,0.8-1.2c0.3-0.3,0.7-0.6,1.2-0.8c0.4-0.2,0.9-0.3,1.4-0.3
		c0.5,0,1,0.1,1.4,0.3c0.4,0.2,0.8,0.5,1.2,0.8c0.3,0.3,0.6,0.7,0.8,1.2c0.2,0.4,0.3,0.9,0.3,1.4s-0.1,1-0.3,1.4s-0.5,0.8-0.8,1.2
		c-0.3,0.3-0.7,0.6-1.2,0.8c-0.4,0.2-0.9,0.3-1.4,0.3c-0.5,0-1-0.1-1.4-0.3c-0.4-0.2-0.8-0.5-1.2-0.8c-0.3-0.3-0.6-0.7-0.8-1.2
		S308.4,143.2,308.4,142.7z"/>
</g>
<g class="st1">
	<path class="st3" d="M332.6,126.3c0,0.5-0.2,0.9-0.5,1.3c-0.4,0.3-0.8,0.5-1.2,0.5c-0.4,0-0.8-0.2-1.2-0.5
		c-0.4-0.3-0.5-0.7-0.5-1.3s0.2-0.9,0.5-1.3c0.4-0.3,0.8-0.5,1.2-0.5c0.4,0,0.8,0.2,1.2,0.5C332.4,125.3,332.6,125.8,332.6,126.3z
		 M332.1,150h-2.5v-17.1h2.5V150z"/>
	<path class="st3" d="M341.3,150h-2.5v-27.6h2.5V150z"/>
	<path class="st3" d="M350.5,150H348v-27.6h2.5V150z"/>
	<path class="st3" d="M369.6,150c0-0.5-0.1-1-0.1-1.5c0-0.6,0-1,0-1.4h-0.1c-0.5,1-1.3,1.8-2.4,2.4c-1.1,0.6-2.3,0.9-3.5,0.9
		c-2.2,0-3.8-0.6-4.9-1.9c-1.1-1.3-1.6-3-1.6-5.1v-10.5h2.5v9.5c0,0.9,0.1,1.7,0.2,2.4c0.1,0.7,0.4,1.4,0.7,1.9
		c0.4,0.5,0.8,0.9,1.4,1.2c0.6,0.3,1.3,0.4,2.2,0.4c0.7,0,1.3-0.1,1.9-0.4c0.6-0.3,1.2-0.7,1.7-1.2c0.5-0.5,0.9-1.2,1.2-2.1
		c0.3-0.8,0.4-1.8,0.4-3v-8.8h2.5v13.3c0,0.5,0,1.1,0,1.8c0,0.7,0.1,1.4,0.1,2H369.6z"/>
	<path class="st3" d="M387.5,136.9c-0.4-0.7-0.9-1.3-1.7-1.7c-0.7-0.5-1.6-0.7-2.5-0.7c-0.4,0-0.9,0-1.3,0.1
		c-0.4,0.1-0.8,0.3-1.2,0.5c-0.3,0.2-0.6,0.5-0.8,0.8c-0.2,0.3-0.3,0.7-0.3,1.2c0,0.8,0.3,1.4,1,1.8c0.7,0.4,1.7,0.8,3.1,1.1
		c2,0.4,3.5,1,4.5,1.8s1.4,1.9,1.4,3.2c0,1-0.2,1.8-0.6,2.5c-0.4,0.7-0.9,1.2-1.5,1.6c-0.6,0.4-1.3,0.7-2.1,0.9
		c-0.8,0.2-1.5,0.3-2.3,0.3c-1.3,0-2.5-0.3-3.8-0.8c-1.2-0.5-2.2-1.4-3-2.5l2-1.5c0.4,0.8,1.1,1.4,1.9,1.9c0.9,0.5,1.8,0.8,2.8,0.8
		c0.5,0,1,0,1.5-0.1s0.9-0.3,1.3-0.5c0.4-0.2,0.7-0.6,0.9-0.9c0.2-0.4,0.3-0.8,0.3-1.4c0-0.9-0.4-1.6-1.3-2s-2.1-0.9-3.7-1.3
		c-0.5-0.1-1.1-0.3-1.6-0.5s-1.1-0.5-1.6-0.8c-0.5-0.4-0.9-0.8-1.2-1.3c-0.3-0.5-0.5-1.2-0.5-2c0-0.9,0.2-1.6,0.5-2.2
		c0.3-0.6,0.8-1.1,1.4-1.5c0.6-0.4,1.2-0.7,2-0.9c0.7-0.2,1.5-0.3,2.3-0.3c1.2,0,2.4,0.3,3.5,0.8c1.1,0.5,2,1.3,2.5,2.3L387.5,136.9
		z"/>
	<path class="st3" d="M402.3,134.9h-4.8v10c0,0.6,0.1,1.2,0.2,1.6c0.1,0.4,0.3,0.7,0.5,1c0.2,0.2,0.5,0.4,0.8,0.5
		c0.3,0.1,0.7,0.1,1,0.1c0.3,0,0.7,0,1.1-0.1c0.4-0.1,0.7-0.2,1.1-0.4l0.1,2.2c-0.4,0.2-0.9,0.3-1.4,0.4c-0.5,0.1-1,0.1-1.6,0.1
		c-0.5,0-1-0.1-1.5-0.2c-0.5-0.1-1-0.4-1.4-0.7c-0.4-0.3-0.8-0.8-1.1-1.4s-0.4-1.4-0.4-2.3v-10.7h-3.5v-2.1h3.5V128h2.5v4.8h4.8
		V134.9z"/>
	<path class="st3" d="M406.2,134.8c0-0.7-0.1-1.4-0.1-2h2.4c0,0.5,0.1,1,0.1,1.5c0,0.6,0,1,0,1.4h0.1c0.5-1,1.2-1.8,2.2-2.4
		c1-0.6,2.1-0.9,3.3-0.9c0.3,0,0.6,0,0.9,0s0.5,0.1,0.8,0.1l-0.3,2.4c-0.1,0-0.4-0.1-0.7-0.1c-0.3,0-0.7-0.1-1-0.1
		c-0.7,0-1.3,0.1-1.9,0.4c-0.6,0.2-1.1,0.6-1.6,1.1c-0.5,0.5-0.8,1.2-1.1,2s-0.4,1.8-0.4,2.9v8.8h-2.5v-13.3
		C406.2,136.2,406.2,135.6,406.2,134.8z"/>
	<path class="st3" d="M429.7,138.9c0-1.5-0.4-2.6-1.2-3.3c-0.8-0.7-1.9-1.1-3.4-1.1c-1,0-2,0.2-2.9,0.5s-1.6,0.9-2.2,1.5l-1.4-1.6
		c0.7-0.7,1.6-1.3,2.8-1.8c1.2-0.5,2.5-0.7,3.9-0.7c0.9,0,1.8,0.1,2.6,0.4c0.8,0.3,1.5,0.6,2.1,1.2c0.6,0.5,1.1,1.2,1.4,1.9
		c0.3,0.8,0.5,1.7,0.5,2.7v7.5c0,0.7,0,1.3,0.1,2c0,0.7,0.1,1.3,0.2,1.8h-2.2c-0.1-0.4-0.1-0.9-0.2-1.4c0-0.5-0.1-1-0.1-1.4h-0.1
		c-0.8,1.1-1.7,2-2.7,2.5c-1,0.5-2.2,0.7-3.6,0.7c-0.7,0-1.3-0.1-2-0.3c-0.7-0.2-1.3-0.5-1.9-0.9s-1-1-1.4-1.6s-0.6-1.5-0.6-2.4
		c0-1.3,0.3-2.4,1-3.1c0.7-0.8,1.6-1.3,2.7-1.7c1.1-0.4,2.4-0.6,3.9-0.7c1.5-0.1,3-0.2,4.5-0.2V138.9z M429,141.4
		c-1,0-2.1,0-3.1,0.1c-1,0.1-2,0.3-2.8,0.5c-0.8,0.3-1.5,0.6-2.1,1.1c-0.5,0.5-0.8,1.1-0.8,1.9c0,0.6,0.1,1.1,0.3,1.5
		c0.2,0.4,0.5,0.7,0.9,1s0.8,0.4,1.3,0.5c0.5,0.1,1,0.2,1.4,0.2c0.9,0,1.7-0.2,2.3-0.5c0.7-0.3,1.3-0.7,1.7-1.2s0.8-1.1,1.1-1.8
		c0.2-0.7,0.4-1.4,0.4-2.2v-1.3H429z"/>
	<path class="st3" d="M445.8,134.9h-4.8v10c0,0.6,0.1,1.2,0.2,1.6c0.1,0.4,0.3,0.7,0.5,1c0.2,0.2,0.5,0.4,0.8,0.5s0.7,0.1,1,0.1
		c0.3,0,0.7,0,1.1-0.1c0.4-0.1,0.7-0.2,1.1-0.4l0.1,2.2c-0.4,0.2-0.9,0.3-1.4,0.4c-0.5,0.1-1,0.1-1.6,0.1c-0.5,0-1-0.1-1.5-0.2
		c-0.5-0.1-1-0.4-1.4-0.7c-0.4-0.3-0.8-0.8-1.1-1.4s-0.4-1.4-0.4-2.3v-10.7h-3.5v-2.1h3.5V128h2.5v4.8h4.8V134.9z"/>
	<path class="st3" d="M452.7,126.3c0,0.5-0.2,0.9-0.5,1.3c-0.4,0.3-0.8,0.5-1.2,0.5s-0.8-0.2-1.2-0.5c-0.4-0.3-0.5-0.7-0.5-1.3
		s0.2-0.9,0.5-1.3c0.4-0.3,0.8-0.5,1.2-0.5s0.8,0.2,1.2,0.5S452.7,125.8,452.7,126.3z M452.2,150h-2.5v-17.1h2.5V150z"/>
	<path class="st3" d="M475.8,141.4c0,1.3-0.2,2.5-0.7,3.6c-0.5,1.1-1.1,2-1.9,2.9c-0.8,0.8-1.8,1.4-2.9,1.9
		c-1.1,0.5-2.4,0.7-3.7,0.7c-1.3,0-2.5-0.2-3.7-0.7c-1.1-0.5-2.1-1.1-2.9-1.9c-0.8-0.8-1.4-1.8-1.9-2.9c-0.5-1.1-0.7-2.3-0.7-3.6
		s0.2-2.5,0.7-3.6c0.5-1.1,1.1-2,1.9-2.9c0.8-0.8,1.8-1.4,2.9-1.9s2.3-0.7,3.7-0.7c1.3,0,2.6,0.2,3.7,0.7s2.1,1.1,2.9,1.9
		c0.8,0.8,1.4,1.8,1.9,2.9C475.6,138.9,475.8,140.1,475.8,141.4z M473.1,141.4c0-1-0.2-1.8-0.5-2.7c-0.3-0.8-0.7-1.6-1.3-2.2
		c-0.6-0.6-1.2-1.1-2-1.5c-0.8-0.4-1.7-0.5-2.7-0.5s-1.9,0.2-2.7,0.5s-1.5,0.9-2,1.5c-0.6,0.6-1,1.4-1.3,2.2
		c-0.3,0.8-0.5,1.7-0.5,2.7s0.2,1.8,0.5,2.7s0.7,1.6,1.3,2.2c0.6,0.6,1.2,1.1,2,1.5s1.7,0.5,2.7,0.5s1.9-0.2,2.7-0.5
		c0.8-0.4,1.5-0.8,2-1.5c0.6-0.6,1-1.4,1.3-2.2C473,143.3,473.1,142.4,473.1,141.4z"/>
	<path class="st3" d="M483.3,132.9c0,0.5,0.1,1,0.1,1.5c0,0.6,0,1,0,1.4h0.1c0.5-1,1.3-1.8,2.4-2.4c1.1-0.6,2.3-0.9,3.5-0.9
		c2.2,0,3.8,0.6,4.9,1.9c1.1,1.3,1.6,3,1.6,5.1V150h-2.5v-9.5c0-0.9-0.1-1.7-0.2-2.4c-0.1-0.7-0.4-1.4-0.7-1.9
		c-0.4-0.5-0.8-0.9-1.4-1.2c-0.6-0.3-1.3-0.4-2.2-0.4c-0.7,0-1.3,0.1-1.9,0.4c-0.6,0.3-1.2,0.7-1.7,1.2c-0.5,0.5-0.9,1.2-1.2,2.1
		c-0.3,0.8-0.4,1.8-0.4,3v8.8h-2.5v-13.3c0-0.5,0-1.1,0-1.8c0-0.7-0.1-1.4-0.1-2H483.3z"/>
</g>
<g class="st1">
	<path class="st3" d="M510.6,142.7c0-0.5,0.1-1,0.3-1.4c0.2-0.4,0.5-0.8,0.8-1.2c0.3-0.3,0.7-0.6,1.2-0.8c0.4-0.2,0.9-0.3,1.4-0.3
		s1,0.1,1.4,0.3c0.4,0.2,0.8,0.5,1.2,0.8s0.6,0.7,0.8,1.2c0.2,0.4,0.3,0.9,0.3,1.4s-0.1,1-0.3,1.4c-0.2,0.4-0.5,0.8-0.8,1.2
		s-0.7,0.6-1.2,0.8c-0.4,0.2-0.9,0.3-1.4,0.3s-1-0.1-1.4-0.3c-0.4-0.2-0.8-0.5-1.2-0.8c-0.3-0.3-0.6-0.7-0.8-1.2
		C510.6,143.7,510.6,143.2,510.6,142.7z"/>
</g>
<g class="st1">
	<path class="st3" d="M544.1,150c0-0.5-0.1-1-0.1-1.5c0-0.6,0-1,0-1.4h-0.1c-0.5,1-1.3,1.8-2.4,2.4c-1.1,0.6-2.3,0.9-3.5,0.9
		c-2.2,0-3.8-0.6-4.9-1.9c-1.1-1.3-1.6-3-1.6-5.1v-10.5h2.5v9.5c0,0.9,0.1,1.7,0.2,2.4c0.1,0.7,0.4,1.4,0.8,1.9
		c0.4,0.5,0.8,0.9,1.4,1.2c0.6,0.3,1.3,0.4,2.2,0.4c0.7,0,1.3-0.1,1.9-0.4c0.6-0.3,1.2-0.7,1.7-1.2c0.5-0.5,0.9-1.2,1.2-2.1
		s0.4-1.8,0.4-3v-8.8h2.5v13.3c0,0.5,0,1.1,0,1.8c0,0.7,0.1,1.4,0.1,2H544.1z"/>
	<path class="st3" d="M556.9,141.1l-6.3-8.3h3.2l4.7,6.5l4.7-6.5h3l-6.2,8.2l6.8,9h-3.2l-5.1-7.1l-5.2,7.1h-3L556.9,141.1z"/>
</g>
<line class="st4" x1="140.7" y1="32.8" x2="140.7" y2="159.7"/>
<path class="st2" d="M83.5,111.3l-6.6,6.6c0,1.9-0.1,3.6-0.3,5.2c-1.3,11.6-6.7,16.4-16.4,16.4c-6.6,0-11.9-2.7-16.3-9
	c-1-1.5-3.1-1.9-4.5-0.8l-4,2.9c-1.5,1.1-1.9,3.1-0.9,4.6c6,9.1,14.9,13.9,26.9,13.9c18.5,0,27-11.9,28.5-27.4
	c0.2-1.7,0.3-3.4,0.3-5.2v-0.7L83.5,111.3z"/>
<g>
	<path class="st3" d="M88,42.4h-9c-1.2,0-2.1,1-2.1,2.1V49v3.4v2.1H79h9h2.1v-2.1V49v-4.5C90.1,43.3,89.2,42.4,88,42.4z"/>
	<polygon class="st3" points="76.9,104.7 83.5,111.3 90.1,104.7 90.1,57.8 76.9,57.8 	"/>
</g>
</svg>
