<?xml version="1.0" encoding="utf-8"?>
<!-- Generator: Adobe Illustrator 22.1.0, SVG Export Plug-In . SVG Version: 6.00 Build 0)  -->
<svg version="1.1" id="Layer_1" xmlns="http://www.w3.org/2000/svg" xmlns:xlink="http://www.w3.org/1999/xlink" x="0px" y="0px"
	 viewBox="0 0 44 44" style="enable-background:new 0 0 44 44;" xml:space="preserve">
<style type="text/css">
	.st0{fill:#808184;}
</style>
<g transform="translate(0,-952.36218)">
	<path class="st0" d="M12.1,953.4c-6.1,0-11.1,5-11.1,11.1v19.9c0,6.1,5,11.1,11.1,11.1h19.9c6.1,0,11.1-5,11.1-11.1v-19.9
		c0-6.1-5-11.1-11.1-11.1H12.1z M12.1,957.8h19.9c3.7,0,6.6,2.9,6.6,6.6v19.9c0,3.7-2.9,6.6-6.6,6.6H12.1c-3.7,0-6.6-2.9-6.6-6.6
		v-19.9C5.4,960.7,8.3,957.8,12.1,957.8z M33.1,961.1c-1.2,0-2.2,1-2.2,2.2c0,1.2,1,2.2,2.2,2.2c1.2,0,2.2-1,2.2-2.2
		C35.3,962.1,34.3,961.1,33.1,961.1z M22,963.9c-5.8,0-10.5,4.7-10.5,10.5s4.7,10.5,10.5,10.5s10.5-4.7,10.5-10.5
		S27.8,963.9,22,963.9z M22,968.3c3.4,0,6.1,2.7,6.1,6.1s-2.7,6.1-6.1,6.1s-6.1-2.7-6.1-6.1S18.6,968.3,22,968.3z"/>
</g>
</svg>
