<?xml version="1.0" encoding="utf-8"?>
<!-- Generator: Adobe Illustrator 22.1.0, SVG Export Plug-In . SVG Version: 6.00 Build 0)  -->
<svg version="1.1" id="Background" xmlns="http://www.w3.org/2000/svg" xmlns:xlink="http://www.w3.org/1999/xlink" x="0px" y="0px"
	 viewBox="0 0 976 303" style="enable-background:new 0 0 976 303;" xml:space="preserve">
<style type="text/css">
	.st0{clip-path:url(#SVGID_2_);fill:#6D6E70;}
	.st1{clip-path:url(#SVGID_2_);}
	.st2{fill:#808184;}
	.st3{font-family:'Gibson-SemiBold';}
	.st4{font-size:25.7637px;}
	.st5{font-family:'Gibson-Light';}
</style>
<g>
	<defs>
		<rect id="SVGID_1_" x="153.7" y="76" width="669.5" height="151"/>
	</defs>
	<clipPath id="SVGID_2_">
		<use xlink:href="#SVGID_1_"  style="overflow:visible;"/>
	</clipPath>
	<path class="st0" d="M153.7,150.6c0,19,14.2,34.7,32.6,36.9c1.4,0.2,2.6-0.9,2.6-2.4V116c0-1.4-1.2-2.5-2.6-2.4
		C167.9,115.9,153.7,131.6,153.7,150.6"/>
	<path class="st0" d="M230,151c0-18.9-14.1-34.5-32.4-36.9c-1.5-0.2-2.8,1-2.8,2.5v68.8c0,1.5,1.3,2.7,2.8,2.5
		C215.9,185.5,230,169.9,230,151"/>
	<path class="st0" d="M310.7,159.8c1.3,14.8,12.9,26.6,27.5,28.5c2.1,0.3,4-1.4,4-3.5v-25.1v-17.1c0,0,0,0,0,0c0,0,0,0,0-0.1
		c-1.1-15.1-12.7-27.2-27.6-29.1c-2.1-0.3-4,1.3-4,3.5v25.7v0.1L310.7,159.8C310.7,159.7,310.7,159.7,310.7,159.8"/>
	<path class="st0" d="M267,159.8c-1.3,14.8-12.9,26.6-27.5,28.5c-2.1,0.3-4-1.4-4-3.5v-25.1v-17.1c0,0,0,0,0,0c0,0,0,0,0-0.1
		c1.1-15.1,12.7-27.2,27.6-29.1c2.1-0.3,4,1.3,4,3.5v25.7v0.1L267,159.8C267.1,159.7,267,159.7,267,159.8"/>
	<path class="st0" d="M302.6,113.3c-0.1,0-0.1,0-0.2,0h-27.1c-0.1,0-0.1,0-0.2,0c-1.1,0-2,0.9-2,2.1v0.1v6.5v20.6v0.1v17
		c0,0,0,0.1,0.1,0.1c0.9,9.8,6.2,18.3,14,23.4c1,0.7,2.4,0.7,3.5,0c7.7-5.2,13.1-13.6,14-23.4c0,0,0.1,0,0.1-0.1v-17v-0.1V122v-6.5
		v-0.1C304.6,114.2,303.7,113.3,302.6,113.3"/>
	<path class="st0" d="M416.2,142.7C416.2,142.7,416.2,142.7,416.2,142.7c-1.1-15.5-13.5-27.9-28.9-28.9c-1.2-0.1-2.2,0.9-2.2,2.1
		v26.9v0.1v16.8c0,0,0,0.1,0.1,0.1c1.4,15.2,13.6,27.2,28.9,28.3c1.2,0.1,2.2-0.9,2.2-2.1v-26.3v0L416.2,142.7
		C416.2,142.8,416.2,142.8,416.2,142.7"/>
	<path class="st0" d="M377.7,113.9c-0.3-0.2-0.7-0.3-1.1-0.3h-26.1c-1.4,0-2.5,1.1-2.5,2.5v26.6v5.5v11.4v26.3c0,1.2,1,2.2,2.2,2.1
		c15.3-1.1,27.5-13.1,28.9-28.3c0,0,0.1,0,0.1-0.1v-11.4v-5.4v-0.1v-26.6v-0.3C379.1,115,378.5,114.2,377.7,113.9"/>
	<path class="st0" d="M450.2,113.2h-25.1c-1.8,0-3.2,1.4-3.2,3.2v0.3v25.7v0.1v8.5v8.6c0,0,0,0.1,0.1,0.1
		c1.3,14.8,12.9,26.6,27.5,28.5c2.1,0.3,4-1.4,4-3.5v-25.1v-8.6v-8.5v-26C453.4,114.6,452,113.2,450.2,113.2"/>
	<path class="st0" d="M421.9,91.5c0-8.5,6.9-15.5,15.5-15.5c8.5,0,15.5,6.9,15.5,15.5c0,8.5-6.9,15.5-15.5,15.5
		C428.8,106.9,421.9,100,421.9,91.5"/>
	<path class="st0" d="M555.5,113.9c-18.8,2-33.4,17.8-33.4,37.2s14.6,35.2,33.4,37.2c1,0.1,1.9-0.7,1.9-1.8v-70.8
		C557.5,114.6,556.6,113.8,555.5,113.9"/>
	<path class="st0" d="M565.4,114.3c-1.2-0.1-2.1,0.8-2.1,1.9v70.4c0,1.2,1,2.1,2.1,1.9c18.7-2.1,33.2-17.9,33.2-37.1
		S584.1,116.4,565.4,114.3"/>
	<path class="st0" d="M764.8,154.7c0,2.3,1.8,4.1,4.1,4.1h0l37.5-16.7c9.4-4.9,16-14.4,16.8-25.5c0.1-1.2-0.9-2.2-2.1-2.2l-27.1-0.1
		c-0.3,0-0.5,0.1-0.8,0.2c-14.4,1.4-26,12.4-28,26.6c0,0,0,0,0,0c0,0.2-0.1,0.5-0.1,0.7c0,0.1,0,0.3,0,0.4c0,0.2,0,0.3-0.1,0.5
		c0,0.2,0,0.4-0.1,0.6c0,0,0,0,0,0c0,0.3,0,0.5-0.1,0.8c0,0.7-0.1,1.2-0.1,1.5c-0.1,2.4,0,5.2,0,6.3V154.7z"/>
	<path class="st0" d="M816.3,143.6l-34.4,15.3h0.2c-0.6,0.2-1.2,0.4-1.8,0.7l-1.2,0.5c-10.1,4.7-17.3,14.5-18.2,26.1
		c-0.1,1.2,0.9,2.2,2.1,2.2l27.1,0.1c0.3,0,0.5-0.1,0.8-0.2c15.1-1.4,27.2-13.6,28.3-28.9c0-0.1,0-0.2,0-0.2c0-0.5,0.1-1.1,0.1-1.7
		c0-0.8,0.1-1.6,0.1-2.4c0-0.2,0-0.3,0-0.5v-7.2C819.5,145.6,818.1,144,816.3,143.6"/>
	<path class="st0" d="M462.4,154.4c0,2.3,1.8,4.1,4.1,4.1h0l37.5-16.7c9.4-4.9,16-14.4,16.8-25.5c0.1-1.2-0.9-2.2-2.1-2.2l-27.1-0.1
		c-0.3,0-0.5,0.1-0.8,0.2c-14.4,1.4-26,12.4-28,26.6c0,0,0,0,0,0c0,0.2-0.1,0.4-0.1,0.7c0,0.1,0,0.3,0,0.4c0,0.2,0,0.3-0.1,0.5
		c0,0.2,0,0.4-0.1,0.6c0,0,0,0,0,0c0,0.3,0,0.5-0.1,0.8c0,0.7-0.1,1.3-0.1,1.5c-0.1,2.4,0,5.2,0,6.3V154.4z"/>
	<path class="st0" d="M513.9,143.2l-34.4,15.3h0.2c-0.6,0.2-1.2,0.4-1.8,0.7l-1.2,0.5c-10.1,4.7-17.3,14.5-18.2,26.1
		c-0.1,1.2,0.9,2.2,2.1,2.2l27.1,0.1c0.3,0,0.5-0.1,0.8-0.2c15.1-1.4,27.2-13.6,28.3-28.9c0-0.1,0-0.2,0-0.2c0-0.5,0.1-1.1,0.1-1.7
		c0-0.8,0.1-1.6,0.1-2.4c0-0.2,0-0.3,0-0.5v-7.2C517.2,145.2,515.8,143.6,513.9,143.2"/>
	<path class="st0" d="M756.1,185.9c-1.1-17.7-15.3-31.9-33-33c-1.2-0.1-2.3,1-2.3,2.2V186c0,1.2,1,2.2,2.2,2.2h30.9
		C755.2,188.2,756.2,187.1,756.1,185.9"/>
	<path class="st0" d="M723.1,149.4c17.7-1.1,31.9-15.3,33-33c0.1-1.2-1-2.3-2.2-2.3H723c-1.2,0-2.2,1-2.2,2.2v30.9
		C720.8,148.4,721.8,149.5,723.1,149.4"/>
	<path class="st0" d="M712.7,187.7h-26.3c-1.3,0-2.4-1.1-2.4-2.4v-68.9c0-1.3,1.1-2.4,2.4-2.4h26.3c1.3,0,2.4,1.1,2.4,2.4v68.9
		C715.1,186.7,714,187.7,712.7,187.7"/>
	<path class="st0" d="M641.1,156c-2.7,0-4.9-2.2-4.9-4.9c0-2.7,2.2-4.9,4.9-4.9c1.4,0,2.6,0.6,3.5,1.6c0.6,0.7,1.5,1,2.5,1h29.4
		c1,0,1.9-0.9,1.8-2c-2.1-18.2-17.1-32.4-35.7-33c-20.4-0.7-38.1,15.9-38.7,36.2c-0.6,21.1,16.3,38.4,37.3,38.4
		c19.2,0,34.9-14.5,37.1-33.1c0.1-1-0.7-2-1.8-2h-29.4c-0.9,0-1.8,0.3-2.5,1C643.8,155.4,642.5,156,641.1,156"/>
	<g class="st1">
		<text transform="matrix(1 0 0 1 390.1792 221.9756)" class="st2 st3 st4">w</text>
	</g>
	<g class="st1">
		<text transform="matrix(1 0 0 1 410.9961 221.9756)" class="st2 st3 st4">ork </text>
	</g>
	<g class="st1">
		<text transform="matrix(1 0 0 1 455.5933 221.9756)" class="st2 st5 st4">lik</text>
	</g>
	<g class="st1">
		<text transform="matrix(1 0 0 1 477.3374 221.9756)" class="st2 st5 st4">e you </text>
	</g>
	<g class="st1">
		<text transform="matrix(1 0 0 1 539.3506 221.9756)" class="st2 st3 st4">pla</text>
	</g>
	<g class="st1">
		<text transform="matrix(1 0 0 1 576.502 221.9756)" class="st2 st3 st4">y.</text>
	</g>
</g>
</svg>
