<?xml version="1.0" encoding="utf-8"?>
<!-- Generator: Adobe Illustrator 22.1.0, SVG Export Plug-In . SVG Version: 6.00 Build 0)  -->
<svg version="1.1" id="Layer_1" xmlns="http://www.w3.org/2000/svg" xmlns:xlink="http://www.w3.org/1999/xlink" x="0px" y="0px"
	 viewBox="0 0 1493 1080" style="enable-background:new 0 0 1493 1080;" xml:space="preserve">
<style type="text/css">
	.st0{fill:#45446C;}
	.st1{font-family:'Gibson-Regular';}
	.st2{font-size:22.5663px;}
	.st3{fill:#F05926;}
	.st4{font-family:'Gibson-SemiBold';}
	.st5{font-size:32.8237px;}
	.st6{font-size:51.2871px;}
	.st7{letter-spacing:-2;}
	.st8{letter-spacing:-1;}
	.st9{fill:#AFBE36;}
	.st10{fill:#F05A25;}
	.st11{fill:#00597E;}
	.st12{fill:#46426A;}
</style>
<g>
	<text transform="matrix(1 0 0 1 149.2046 936.5977)"><tspan x="0" y="0" class="st0 st1 st2">#f05</tspan><tspan x="46.1" y="0" class="st0 st1 st2">9</tspan><tspan x="59.1" y="0" class="st0 st1 st2">2</tspan><tspan x="71.9" y="0" class="st0 st1 st2">4</tspan></text>
	<text transform="matrix(1 0 0 1 149.2046 975.5703)" class="st0 st1 st2">C=0   M=80   Y=98   K=0</text>
	<text transform="matrix(1 0 0 1 149.2046 1014.54)"><tspan x="0" y="0" class="st0 st1 st2">R=</tspan><tspan x="27.2" y="0" class="st0 st1 st2">2</tspan><tspan x="40" y="0" class="st0 st1 st2">41   G=89   B=36</tspan></text>
	<text transform="matrix(1 0 0 1 447.1909 936.5742)" class="st0 st1 st2">#afbf36</text>
	<text transform="matrix(1 0 0 1 447.1909 975.5459)" class="st0 st1 st2">C=36   M=11   Y=100   K=0</text>
	<text transform="matrix(1 0 0 1 447.1909 1014.5176)"><tspan x="0" y="0" class="st0 st1 st2">R=1</tspan><tspan x="37.1" y="0" class="st0 st1 st2">7</tspan><tspan x="49.8" y="0" class="st0 st1 st2">6   G=191   B=54</tspan></text>
	<text transform="matrix(1 0 0 1 745.1802 936.5518)"><tspan x="0" y="0" class="st0 st1 st2">#005</tspan><tspan x="53.1" y="0" class="st0 st1 st2">8</tspan><tspan x="65.8" y="0" class="st0 st1 st2">7e</tspan></text>
	<text transform="matrix(1 0 0 1 745.1802 975.5234)" class="st0 st1 st2">C=96   M=64   Y=31   K=12</text>
	<text transform="matrix(1 0 0 1 745.1802 1014.4961)" class="st0 st1 st2">R=0   G=88   B=126</text>
	<text transform="matrix(1 0 0 1 1043.1699 936.5283)" class="st0 st1 st2">#45426a</text>
	<text transform="matrix(1 0 0 1 1043.1699 975.502)"><tspan x="0" y="0" class="st0 st1 st2">C=81   M=</tspan><tspan x="100.9" y="0" class="st0 st1 st2">7</tspan><tspan x="113.8" y="0" class="st0 st1 st2">9   Y=33   K=20</tspan></text>
	<text transform="matrix(1 0 0 1 1043.1699 1014.4746)"><tspan x="0" y="0" class="st0 st1 st2">R=</tspan><tspan x="27.2" y="0" class="st0 st1 st2">7</tspan><tspan x="40" y="0" class="st0 st1 st2">0   G=66   B=106</tspan></text>
	<text transform="matrix(1 0 0 1 60.2046 81.1187)" class="st3 st4 st5">Gibson Semibold </text>
	<text transform="matrix(1 0 0 1 60.2046 376.7603)"><tspan x="0" y="0" class="st3 st4 st5">Gibson </tspan><tspan x="114.1" y="0" class="st3 st4 st5">R</tspan><tspan x="133.4" y="0" class="st3 st4 st5">egular </tspan></text>
	<text transform="matrix(1 0 0 1 60.2046 148.1284)"><tspan x="0" y="0" class="st0 st4 st6">Aa Bb </tspan><tspan x="147.1" y="0" class="st0 st4 st6">C</tspan><tspan x="179.9" y="0" class="st0 st4 st6">c Dd </tspan><tspan x="293.2" y="0" class="st0 st4 st6">E</tspan><tspan x="321.3" y="0" class="st0 st4 st6">e Ff Gg Hh Ii Jj Kk Ll Mm Nn Oo Pp Qq Rr Ss </tspan><tspan x="1304.3" y="0" class="st0 st4 st6 st7">T</tspan><tspan x="1329" y="0" class="st0 st4 st6">t </tspan></text>
	<text transform="matrix(1 0 0 1 60.2046 213.7769)"><tspan x="0" y="0" class="st0 st4 st6">Uu </tspan><tspan x="75.4" y="0" class="st0 st4 st6 st7">V</tspan><tspan x="107.1" y="0" class="st0 st4 st6">v </tspan><tspan x="145.2" y="0" class="st0 st4 st6 st8">W</tspan><tspan x="194.3" y="0" class="st0 st4 st6">w </tspan><tspan x="246.6" y="0" class="st0 st4 st6 st7">X</tspan><tspan x="278" y="0" class="st0 st4 st6">y Zz</tspan></text>
	<text transform="matrix(1 0 0 1 432.9556 213.7769)" class="st0 st4 st6"> </text>
	<text transform="matrix(1 0 0 1 60.2046 437.7974)"><tspan x="0" y="0" class="st0 st1 st6">Aa Bb </tspan><tspan x="139.7" y="0" class="st0 st1 st6">C</tspan><tspan x="173.3" y="0" class="st0 st1 st6">c Dd </tspan><tspan x="283.9" y="0" class="st0 st1 st6">E</tspan><tspan x="310.6" y="0" class="st0 st1 st6">e Ff Gg Hh Ii Jj Kk Ll Mm Nn Oo Pp Qq Rr Ss </tspan><tspan x="1245" y="0" class="st0 st1 st6 st7">T</tspan><tspan x="1268.5" y="0" class="st0 st1 st6">t Uu </tspan></text>
	<text transform="matrix(1 0 0 1 60.2046 503.4448)"><tspan x="0" y="0" class="st0 st1 st6 st7">V</tspan><tspan x="28.5" y="0" class="st0 st1 st6">v </tspan><tspan x="63.4" y="0" class="st0 st1 st6 st8">W</tspan><tspan x="109.9" y="0" class="st0 st1 st6">w </tspan><tspan x="159.1" y="0" class="st0 st1 st6 st7">X</tspan><tspan x="186.7" y="0" class="st0 st1 st6">y Zz</tspan></text>
	<text transform="matrix(1 0 0 1 334.0708 503.4448)" class="st0 st4 st6"> </text>
	<rect x="447.2" y="638.7" class="st9" width="253.9" height="253.9"/>
	<rect x="149.2" y="638.7" class="st10" width="253.9" height="253.9"/>
	<rect x="745.2" y="638.7" class="st11" width="253.9" height="253.9"/>
	<rect x="1043.2" y="638.7" class="st12" width="253.9" height="253.9"/>
</g>
</svg>
