<?xml version="1.0" encoding="utf-8"?>
<!-- Generator: Adobe Illustrator 21.1.0, SVG Export Plug-In . SVG Version: 6.00 Build 0)  -->
<svg version="1.1" id="Layer_1" xmlns="http://www.w3.org/2000/svg" xmlns:xlink="http://www.w3.org/1999/xlink" x="0px" y="0px"
	 viewBox="0 0 60 60" style="enable-background:new 0 0 60 60;" xml:space="preserve">
<style type="text/css">
	.st0{fill:#00ADEE;}
</style>
<path class="st0" d="M54.9,13.5H5.1C2.3,13.5,0,11.2,0,8.4v0c0-2.8,2.3-5.1,5.1-5.1h49.8c2.8,0,5.1,2.3,5.1,5.1v0
	C60,11.2,57.7,13.5,54.9,13.5z"/>
<path class="st0" d="M55.1,35.5H5.2c-2.8,0-5.1-2.3-5.1-5.1v0c0-2.8,2.3-5.1,5.1-5.1h49.8c2.8,0,5.1,2.3,5.1,5.1v0
	C60.1,33.2,57.9,35.5,55.1,35.5z"/>
<path class="st0" d="M55.1,57.4H5.2c-2.8,0-5.1-2.3-5.1-5.1v0c0-2.8,2.3-5.1,5.1-5.1h49.8c2.8,0,5.1,2.3,5.1,5.1v0
	C60.1,55.2,57.9,57.4,55.1,57.4z"/>
</svg>
